# AST/ASF file generated using VICON BodyLanguage
# -----------------------------------------------
:version 1.10
:name VICON
:units
  mass 1.0
  length 0.45
  angle deg
:documentation
   .ast/.asf automatically generated from VICON data using
   VICON BodyBuilder and BodyLanguage model FoxedUp or BRILLIANT.MOD
:root
   order TX TY TZ RX RY RZ
   axis XYZ
   position 0 0 0  
   orientation 0 0 0 
:bonedata
  begin
     id 1 
     name lhipjoint
     direction 0.612567 -0.751349 0.245431 
     length 2.42285 
     axis 0 0 0  XYZ
  end
  begin
     id 2 
     name lfemur
     direction 0.34202 -0.939693 0  
     length 7.11304  
     axis 0 0 20  XYZ
    dof rx ry rz
    limits (-160.0 20.0)
           (-70.0 70.0)
           (-60.0 70.0)
  end
  begin
     id 3 
     name ltibia
     direction 0.34202 -0.939693 0   
     length 7.84529   
     axis 0 0 20   XYZ
    dof rx
    limits (-10.0 170.0)
  end
  begin
     id 4 
     name lfoot
     direction 0.0779239 -0.214094 0.9737   
     length 1.97176   
     axis -90 7.62852e-016 20   XYZ
    dof rx rz
    limits (-45.0 90.0)
           (-70.0 20.0)
  end
  begin
     id 5 
     name ltoes
     direction 1.53565e-011 -4.21709e-011 1   
     length 0.993197   
     axis -90 7.62852e-016 20   XYZ
    dof rx
    limits (-90.0 20.0)
  end
  begin
     id 6 
     name rhipjoint
     direction -0.665722 -0.709315 0.231701   
     length 2.56642  
     axis 0 0 0  XYZ 
  end
  begin
     id 7 
     name rfemur
     direction -0.34202 -0.939693 0   
     length 7.32108   
     axis 0 0 -20   XYZ
    dof rx ry rz
    limits (-160.0 20.0)
           (-70.0 70.0)
           (-70.0 60.0)
  end
  begin
     id 8 
     name rtibia
     direction -0.34202 -0.939693 0   
     length 7.81254   
     axis 0 0 -20   XYZ
    dof rx
    limits (-10.0 170.0)
 end
 begin
     id 9 
     name rfoot
     direction -0.0832806 -0.228812 0.969902   
     length 2.08278  
     axis -90 -7.62852e-016 -20   XYZ
    dof rx rz
    limits (-45.0 90.0)
           (-20.0 70.0)
  end
  begin
     id 10 
     name rtoes
     direction -1.53589e-011 -4.22086e-011 1   
     length 1.04609   
     axis -90 -7.62852e-016 -20   XYZ
    dof rx
    limits (-90.0 20.0)
  end
  begin
     id 11 
     name lowerback
     direction -0.00506013 0.988403 -0.151766   
     length 2.01978   
     axis 0 0 0   XYZ
    dof rx ry rz
    limits (-20.0 45.0)
           (-30.0 30.0)
           (-30.0 30.0)
  end
  begin
     id 12 
     name upperback
     direction -0.00836389 0.99968 0.0238859   
     length 2.01276   
     axis 0 0 0   XYZ
    dof rx ry rz
    limits (-20.0 45.0)
           (-30.0 30.0)
           (-30.0 30.0)
  end
  begin
     id 13 
     name thorax
     direction -0.00684136 0.995386 0.0957043   
     length 2.07303   
     axis 0 0 0   XYZ
    dof rx ry rz
    limits (-20.0 45.0)
           (-30.0 30.0)
           (-30.0 30.0)
  end
  begin
     id 14 
     name lowerneck
     direction -0.0161045 0.999661 0.0204485   
     length 1.91243   
     axis 0 0 0   XYZ
    dof rx ry rz
    limits (-20.0 45.0)
           (-30.0 30.0)
           (-30.0 30.0)
  end
  begin
     id 15 
     name upperneck
     direction 0.0553583 0.990946 -0.122319   
     length 1.91574   
     axis 0 0 0   XYZ
    dof rx ry rz
    limits (-20.0 45.0)
           (-30.0 30.0)
           (-30.0 30.0)
  end
  begin
     id 16
     name head
     direction 0.0180273 0.998839 -0.0446756  
     length 1.92693  
     axis 0 0 0   XYZ
    dof rx ry rz
    limits (-20.0 45.0)
           (-30.0 30.0)
           (-30.0 30.0)
  end
  begin
     id 17 
     name lclavicle
     direction 0.945646 0.319323 -0.0615358  
     length 4.0076  
     axis 0 0 0   XYZ
    dof ry rz
    limits (-20.0 10.0)
           (0.0 20.0)
  end
  begin
     id 18 
     name lhumerus
     direction 1 -4.48967e-011 -2.79996e-027   
     length 5.64147   
     axis 180 -30 -90   XYZ
    dof rx ry rz
    limits (-60.0 90.0)
           (-90.0 90.0)
           (-90.0 90.0)
  end
  begin
     id 19
     name lradius
     direction 1 -4.48976e-011 -9.5122e-027   
     length 2.86444   
     axis 180 -30 -90   XYZ
    dof rx
    limits (-10.0 170.0)
  end
  begin
     id 20
     name lwrist
     direction 1 -4.48983e-011 -1.24047e-026   
     length 1.43222   
     axis 9.05591e-015 90 90   XYZ
    dof ry
    limits (-180.0 0.0)
 end
  begin
     id 21 
     name lhand
     direction 1 -4.4892e-011 -2.48094e-026   
     length 0.722123   
     axis 1.58305e-014 90 90   XYZ
    dof rx rz
    limits (-90.0 90.0)
           (-45.0 45.0)
  end
  begin
     id 22 
     name lfingers
     direction 1 -4.48895e-011 -4.96187e-026   
     length 0.582194   
     axis 3.1661e-014 90 90   XYZ
    dof rx
    limits (0.0 90.0)
  end
  begin
     id 23
     name lthumb
     direction 0.707107 -6.34961e-011 0.707107   
     length 0.835918   
     axis -90 45 2.85299e-015   XYZ
    dof rx rz
    limits (-45.0 45.0)
           (-45.0 45.0)
  end
  begin
     id 24 
     name rclavicle
     direction -0.932635 0.324218 -0.15835   
     length 3.65819  
     axis 0 0 0   XYZ 
    dof ry rz
    limits (-10.0 20.0)
           (-20.0 0.0)
  end
  begin
     id 25 
     name rhumerus
     direction -1 -4.48965e-011 -4.02296e-027  
     length 5.44729   
     axis 180 30 90   XYZ
    dof rx ry rz
    limits (-90.0 60.0)
           (-90.0 90.0)
           (-90.0 90.0)
  end
  begin
     id 26 
     name rradius
     direction -1 -4.48957e-011 -8.81087e-027   
     length 3.08821   
     axis 180 30 90   XYZ
    dof rx
    limits (-10.0 170.0)
  end
  begin
     id 27 
     name rwrist
     direction -1 -4.49015e-011 -1.24047e-026   
     length 1.5441   
     axis 9.05591e-015 -90 -90   XYZ
    dof ry
    limits (-180.0 0.0)
  end
  begin
     id 28
     name rhand
     direction -1 -4.4891e-011 -2.48094e-026   
     length 0.821049   
     axis 1.58305e-014 -90 -90   XYZ
    dof rx rz
    limits (-90.0 90.0)
           (-45.0 45.0)
  end
  begin
     id 29
     name rfingers
     direction -1 -4.48985e-011 -4.96187e-026   
     length 0.661951   
     axis 3.1661e-014 -90 -90   XYZ
    dof rx
    limits (0.0 90.0)
  end
  begin
     id 30
     name rthumb
     direction -0.707107 -6.34906e-011 0.707107   
     length 0.950433   
     axis -90 -45 -2.85299e-015   XYZ
    dof rx rz
    limits (-45.0 45.0)
           (-45.0 45.0)
  end
:hierarchy
  begin
    root lhipjoint rhipjoint lowerback
    lhipjoint lfemur
    lfemur ltibia
    ltibia lfoot
    lfoot ltoes
    rhipjoint rfemur
    rfemur rtibia
    rtibia rfoot
    rfoot rtoes
    lowerback upperback
    upperback thorax
    thorax lowerneck lclavicle rclavicle
    lowerneck upperneck
    upperneck head
    lclavicle lhumerus
    lhumerus lradius
    lradius lwrist
    lwrist lhand lthumb
    lhand lfingers
    rclavicle rhumerus
    rhumerus rradius
    rradius rwrist
    rwrist rhand rthumb
    rhand rfingers
  end

#!OML:ASF F:\VICON\USERDATA\INSTALL\rory3\rory3.ASF
:FULLY-SPECIFIED
:DEGREES
1008
root 2.99956 17.6958 0.570075 -18.0246 86.8082 -17.1767
lowerback 7.24046 -0.467 4.74944
upperback -2.97551 -0.249136 -1.72729
thorax -7.2418 -0.386986 -4.46798
lowerneck -7.36411 -4.99261 -6.1
upperneck 13.9498 -7.08027 8.22021
head 5.93484 -3.13765 3.0672
rclavicle 5.51627e-015 -6.36111e-015
rhumerus -93.0948 38.0977 -116.234
rradius 109.875
rwrist 9.63549
rhand 2.1216 12.456
rfingers 7.12502
rthumb 27.6209 -15.5366
lclavicle 5.51627e-015 -6.36111e-015
lhumerus -13.6714 23.6189 7.16037
lradius 90.3605
lwrist 13.6117
lhand 4.82473 45.6295
lfingers 7.12502
lthumb 30.2028 73.1799
rfemur -0.506959 0.529722 20.2648
rtibia 15.3271
rfoot -14.6453 1.04217
rtoes -6.43805
lfemur 3.68591 1.14584 -14.6275
ltibia 7.69212
lfoot -11.3729 3.12686
ltoes -7.37774
1009
root 3.00109 17.6985 0.569827 -18.6752 86.81 -17.8035
lowerback 7.24505 -0.454616 4.7701
upperback -2.96389 -0.229551 -1.71211
thorax -7.22984 -0.37742 -4.46611
lowerneck -7.4209 -5.00519 -6.04502
upperneck 14.0021 -7.0922 8.13085
head 5.95682 -3.14471 3.02746
rclavicle -4.5969e-015 3.57812e-015
rhumerus -93.0619 38.1114 -116.179
rradius 109.894
rwrist 9.65845
rhand 2.21428 12.4712
rfingers 7.12502
rthumb 27.7095 -15.5072
lclavicle -4.5969e-015 3.57812e-015
lhumerus -13.6568 23.6042 7.17636
lradius 90.4018
lwrist 13.625
lhand 4.66817 45.6173
lfingers 7.12502
lthumb 30.0534 73.1949
rfemur -0.517047 0.537368 20.296
rtibia 15.3743
rfoot -14.6684 1.04558
rtoes -6.54082
lfemur 3.86942 1.13839 -14.5953
ltibia 7.41187
lfoot -11.2373 3.16461
ltoes -7.45034
1010
root 3.00109 17.6971 0.57064 -20.3187 86.7792 -19.4813
lowerback 7.21268 -0.439334 4.85425
upperback -2.98251 -0.199819 -1.68421
thorax -7.22848 -0.366375 -4.48815
lowerneck -7.41103 -5.01355 -6.00605
upperneck 14.0208 -7.10182 8.07682
head 5.95841 -3.15096 3.00329
rclavicle 2.65874e-015 7.95139e-016
rhumerus -93.0207 38.0897 -116.133
rradius 109.929
rwrist 9.51608
rhand 2.41672 12.4158
rfingers 7.12502
rthumb 27.9031 -15.5313
lclavicle 2.65874e-015 7.95139e-016
lhumerus -13.5974 23.6391 7.2196
lradius 90.4386
lwrist 13.6555
lhand 4.68115 45.5978
lfingers 7.12502
lthumb 30.0658 73.1732
rfemur -0.570602 0.595788 20.41
rtibia 15.3975
rfoot -14.71 1.04912
rtoes -5.74704
lfemur 3.9273 1.14574 -14.477
ltibia 7.21876
lfoot -11.162 3.19375
ltoes -7.47434
1011
root 3.00258 17.6971 0.570957 -20.5624 86.8183 -19.7067
lowerback 7.20612 -0.433346 4.85271
upperback -2.98869 -0.193231 -1.70209
thorax -7.23069 -0.363689 -4.50723
lowerneck -7.37482 -5.02146 -5.93629
upperneck 14.0324 -7.11664 8.03398
head 5.95283 -3.15781 2.97782
rclavicle 2.03754e-015 1.31198e-014
rhumerus -92.9723 38.0341 -116.124
rradius 109.963
rwrist 9.32658
rhand 2.7675 12.3507
rfingers 7.12502
rthumb 28.2384 -15.5415
lclavicle 2.03754e-015 1.31198e-014
lhumerus -13.508 23.6974 7.25083
lradius 90.4808
lwrist 13.6652
lhand 4.87937 45.6972
lfingers 7.12502
lthumb 30.2549 73.238
rfemur -0.54561 0.59342 20.4125
rtibia 15.4121
rfoot -14.7357 0.996677
rtoes -5.84418
lfemur 3.98082 1.11004 -14.4668
ltibia 7.15897
lfoot -11.1721 3.16597
ltoes -7.41412
1012
root 3.00515 17.6967 0.571296 -20.308 86.8757 -19.4139
lowerback 7.18581 -0.446545 4.81712
upperback -2.97479 -0.216428 -1.71319
thorax -7.20637 -0.372694 -4.49546
lowerneck -7.36564 -5.01816 -5.919
upperneck 14.0547 -7.11251 8.0132
head 5.95655 -3.15602 2.96896
rclavicle 1.19768e-014 0
rhumerus -93.0174 38.0827 -116.214
rradius 109.959
rwrist 9.25219
rhand 2.78998 12.3348
rfingers 7.12502
rthumb 28.2598 -15.5538
lclavicle 1.19768e-014 0
lhumerus -13.4944 23.7319 7.24109
lradius 90.469
lwrist 13.7127
lhand 4.88624 45.6755
lfingers 7.12502
lthumb 30.2615 73.2152
rfemur -0.476508 0.617121 20.3819
rtibia 15.4163
rfoot -14.7658 0.934989
rtoes -5.9771
lfemur 4.02245 1.06596 -14.5022
ltibia 7.16493
lfoot -11.1757 3.12035
ltoes -7.17919
1013
root 3.0066 17.6955 0.571898 -19.3384 86.9239 -18.4476
lowerback 7.11808 -0.437318 4.75315
upperback -2.95516 -0.214988 -1.73056
thorax -7.14531 -0.367222 -4.47717
lowerneck -7.3434 -5.01818 -5.91942
upperneck 14.0063 -7.10905 7.99987
head 5.9368 -3.15697 2.96555
rclavicle 5.59082e-015 1.23246e-014
rhumerus -93.0435 38.1042 -116.248
rradius 109.983
rwrist 9.19186
rhand 2.8081 12.3106
rfingers 7.12502
rthumb 28.2772 -15.5752
lclavicle 5.59082e-015 1.23246e-014
lhumerus -13.3973 23.8715 7.32112
lradius 90.404
lwrist 13.7675
lhand 4.94559 45.6505
lfingers 7.12502
lthumb 30.3181 73.1797
rfemur -0.483091 0.570645 20.3111
rtibia 15.4425
rfoot -14.7649 0.966223
rtoes -6.02802
lfemur 4.05484 1.04676 -14.5734
ltibia 7.09038
lfoot -11.1482 3.11832
ltoes -6.97712
1014
root 3.00798 17.6956 0.571334 -18.9433 86.9697 -18.058
lowerback 7.07647 -0.422225 4.72886
upperback -2.95183 -0.198948 -1.7287
thorax -7.11552 -0.357196 -4.46318
lowerneck -7.32043 -5.02864 -6.00145
upperneck 13.9808 -7.11808 8.03774
head 5.92983 -3.16412 2.99073
rclavicle -4.32357e-015 2.78299e-015
rhumerus -93.0671 38.0804 -116.216
rradius 110.03
rwrist 9.16952
rhand 2.83307 12.2413
rfingers 7.12502
rthumb 28.301 -15.6405
lclavicle -4.32357e-015 2.78299e-015
lhumerus -13.2998 24.0394 7.46874
lradius 90.3293
lwrist 13.8676
lhand 5.02126 45.5612
lfingers 7.12502
lthumb 30.3903 73.0771
rfemur -0.481194 0.483399 20.2659
rtibia 15.4434
rfoot -14.766 1.0269
rtoes -5.98698
lfemur 4.06628 1.01874 -14.6137
ltibia 7.05937
lfoot -11.1431 3.13978
ltoes -7.13984
1015
root 3.00975 17.6963 0.570327 -18.5349 87.0135 -17.6459
lowerback 7.05651 -0.415158 4.72549
upperback -2.95624 -0.19133 -1.74087
thorax -7.10789 -0.353433 -4.47513
lowerneck -7.30969 -5.02742 -6.05041
upperneck 13.9859 -7.11727 8.08313
head 5.93287 -3.16307 3.01352
rclavicle -7.45443e-017 9.14409e-015
rhumerus -93.0737 38.0517 -116.188
rradius 110.044
rwrist 9.14301
rhand 2.78515 12.236
rfingers 7.12502
rthumb 28.2552 -15.6534
lclavicle -7.45443e-017 9.14409e-015
lhumerus -13.231 24.099 7.5563
lradius 90.2554
lwrist 13.9754
lhand 5.11907 45.4793
lfingers 7.12502
lthumb 30.4835 72.9779
rfemur -0.466443 0.44122 20.2171
rtibia 15.439
rfoot -14.8178 1.07488
rtoes -5.84543
lfemur 4.07734 0.991964 -14.6562
ltibia 7.0533
lfoot -11.1363 3.12428
ltoes -7.24244
1016
root 3.0108 17.6965 0.570238 -19.9042 87.0103 -18.9954
lowerback 7.04288 -0.415159 4.79321
upperback -2.94579 -0.183864 -1.71481
thorax -7.08856 -0.351538 -4.48667
lowerneck -7.29745 -5.03001 -6.05722
upperneck 13.9705 -7.1184 8.07448
head 5.92595 -3.16524 3.01205
rclavicle 7.45443e-017 -7.95139e-016
rhumerus -93.0708 38.065 -116.17
rradius 110.041
rwrist 9.06512
rhand 2.74341 12.2235
rfingers 7.12502
rthumb 28.2153 -15.6725
lclavicle 7.45443e-017 -7.95139e-016
lhumerus -13.2178 24.0929 7.60995
lradius 90.2018
lwrist 13.9723
lhand 5.10717 45.4157
lfingers 7.12502
lthumb 30.4722 72.9165
rfemur -0.422407 0.457574 20.2931
rtibia 15.4069
rfoot -14.8182 1.04975
rtoes -5.84132
lfemur 4.07508 0.976879 -14.5766
ltibia 7.09263
lfoot -11.1515 3.12967
ltoes -7.38377
1017
root 3.01126 17.6957 0.570279 -20.5748 87.0118 -19.6593
lowerback 7.02004 -0.411858 4.82886
upperback -2.93987 -0.176833 -1.7108
thorax -7.06858 -0.348941 -4.50337
lowerneck -7.30652 -5.02932 -6.05078
upperneck 13.9883 -7.12047 8.08706
head 5.93347 -3.16429 3.01464
rclavicle 1.88845e-015 -7.15625e-015
rhumerus -93.0276 38.0508 -116.136
rradius 110.039
rwrist 9.02631
rhand 2.83272 12.2248
rfingers 7.12502
rthumb 28.3007 -15.6571
lclavicle 1.88845e-015 -7.15625e-015
lhumerus -13.2168 24.0428 7.62341
lradius 90.1588
lwrist 13.9431
lhand 4.95106 45.3828
lfingers 7.12502
lthumb 30.3233 72.911
rfemur -0.393912 0.471367 20.3315
rtibia 15.3791
rfoot -14.7892 0.992012
rtoes -5.79238
lfemur 4.05967 0.970073 -14.5387
ltibia 7.12967
lfoot -11.179 3.13109
ltoes -7.56431
1018
root 3.01184 17.6953 0.570251 -20.8135 87.0487 -19.8883
lowerback 6.99812 -0.411629 4.83633
upperback -2.92661 -0.177456 -1.71701
thorax -7.04194 -0.348713 -4.51387
lowerneck -7.33399 -5.03436 -6.02567
upperneck 13.9787 -7.12933 8.08815
head 5.93503 -3.16677 3.00949
rclavicle -7.00716e-015 -1.23246e-014
rhumerus -92.95 38.0493 -116.054
rradius 110.038
rwrist 8.99144
rhand 2.93435 12.2171
rfingers 7.12502
rthumb 28.3978 -15.6486
lclavicle -7.00716e-015 -1.23246e-014
lhumerus -13.1656 24.0283 7.6528
lradius 90.0752
lwrist 13.7953
lhand 4.91455 45.2779
lfingers 7.12502
lthumb 30.2885 72.8125
rfemur -0.35887 0.430105 20.3272
rtibia 15.3569
rfoot -14.7947 1.01485
rtoes -5.83678
lfemur 4.04002 0.938195 -14.5426
ltibia 7.16428
lfoot -11.2031 3.12123
ltoes -7.44355
1019
root 3.01316 17.6951 0.56957 -20.5464 87.1144 -19.6348
lowerback 6.9462 -0.415573 4.81906
upperback -2.91815 -0.187468 -1.72575
thorax -7.00391 -0.351742 -4.51163
lowerneck -7.4036 -5.04836 -6.029
upperneck 13.9896 -7.14711 8.09211
head 5.95214 -3.17366 3.00817
rclavicle 2.23633e-016 1.59028e-015
rhumerus -92.875 38.0461 -115.953
rradius 110.018
rwrist 8.94859
rhand 3.08724 12.3677
rfingers 7.12502
rthumb 28.5439 -15.4736
lclavicle 2.23633e-016 1.59028e-015
lhumerus -13.0859 24.1023 7.71251
lradius 89.9897
lwrist 13.5472
lhand 5.16317 45.1761
lfingers 7.12502
lthumb 30.5256 72.6669
rfemur -0.36133 0.382367 20.2879
rtibia 15.3593
rfoot -14.8258 0.994182
rtoes -6.28938
lfemur 4.01044 0.890384 -14.5799
ltibia 7.15868
lfoot -11.1862 3.11716
ltoes -7.5117
1020
root 3.01438 17.6954 0.568533 -20.1978 87.1724 -19.2996
lowerback 6.9058 -0.422627 4.80199
upperback -2.91369 -0.201065 -1.73561
thorax -6.97726 -0.356989 -4.51035
lowerneck -7.45928 -5.04991 -6.02199
upperneck 13.9777 -7.14921 8.10099
head 5.95832 -3.17283 3.00839
rclavicle 6.75868e-015 -1.63003e-014
rhumerus -92.7848 38.0585 -115.866
rradius 109.978
rwrist 8.88641
rhand 3.25663 12.5332
rfingers 7.12502
rthumb 28.7058 -15.2807
lclavicle 6.75868e-015 -1.63003e-014
lhumerus -13.0533 24.1907 7.76499
lradius 89.9449
lwrist 13.3469
lhand 5.44578 45.0624
lfingers 7.12502
lthumb 30.7951 72.5027
rfemur -0.371288 0.363723 20.2413
rtibia 15.3763
rfoot -14.8593 0.975674
rtoes -6.20761
lfemur 4.00461 0.851291 -14.625
ltibia 7.13185
lfoot -11.1599 3.11761
ltoes -7.42858
1021
root 3.01431 17.6956 0.568696 -20.5609 87.2195 -19.6455
lowerback 6.92957 -0.43937 4.80892
upperback -2.92375 -0.221292 -1.73164
thorax -7.00416 -0.36814 -4.5077
lowerneck -7.49631 -5.04859 -5.99839
upperneck 14.018 -7.14596 8.06526
head 5.97497 -3.17093 2.99261
rclavicle 6.65929e-015 -1.59028e-015
rhumerus -92.7776 38.0949 -115.876
rradius 109.966
rwrist 8.8511
rhand 3.27187 12.5321
rfingers 7.12502
rthumb 28.7203 -15.2794
lclavicle 6.65929e-015 -1.59028e-015
lhumerus -13.055 24.1975 7.78943
lradius 89.8981
lwrist 13.2019
lhand 5.56636 45.0022
lfingers 7.12502
lthumb 30.91 72.4208
rfemur -0.354671 0.356045 20.2421
rtibia 15.3922
rfoot -14.8859 0.964817
rtoes -5.78298
lfemur 4.03489 0.80723 -14.6229
ltibia 7.09715
lfoot -11.1415 3.13663
ltoes -7.43414
1022
root 3.01377 17.6943 0.569663 -20.7538 87.236 -19.8044
lowerback 6.97434 -0.442168 4.80438
upperback -2.92886 -0.22288 -1.72348
thorax -7.03556 -0.369549 -4.49656
lowerneck -7.50018 -5.06258 -6.02473
upperneck 14.0129 -7.16335 8.07807
head 5.97678 -3.17992 2.99939
rclavicle -2.98177e-016 1.27222e-014
rhumerus -92.8142 38.0956 -115.914
rradius 109.963
rwrist 8.80443
rhand 3.21819 12.4605
rfingers 7.12502
rthumb 28.669 -15.3597
lclavicle -2.98177e-016 1.27222e-014
lhumerus -13.0703 24.2102 7.81256
lradius 89.8655
lwrist 13.1582
lhand 5.5005 44.9685
lfingers 7.12502
lthumb 30.8472 72.3989
rfemur -0.321093 0.333602 20.2502
rtibia 15.4066
rfoot -14.8803 0.973456
rtoes -5.83678
lfemur 4.08097 0.793126 -14.6142
ltibia 7.07713
lfoot -11.1621 3.11147
ltoes -7.09319
